PathFileType  4	(X/Y/Z) C:\Users\antoi\Documents\MyRepositories\mobilecap\ResultsAnalysis
DataRate	CameraRate	NumFrames	NumMarkers	Units	OrigDataRate	OrigDataStartFrame	OrigNumFrames
100.0	100.0	7	51	mm	100.0	118	234
Frame#	Time	r_knee			r_shank_antsup			r_ankle			r_calc			r_5meta			r_toe			L_knee			L_shank_antsup			L_ankle			L_calc			L_5meta			L_toe			r_sh2			r_sh3			r_sh4			L_sh2			L_sh3			r_thigh1			r_thigh2			r_thigh3			r_thigh4			r_thigh5			L_thigh1			L_thigh2			L_thigh3			L_thigh4			r.ASIS			r.PSIS			L.ASIS			L.PSIS			C7			R_Shoulder			L_Shoulder			R_Sternum			L_Sternum			R_humerus			R_elbow_med			R_elbow_lat			R_forearm			R_wrist_radius			R_wrist_ulna			L_humerus			L_elbow_med			L_elbow_lat			L_forearm			L_wrist_radius			L_wrist_ulna			R_HJC			L_HJC			R_HJC_reg			L_HJC_reg			
		X1	Y1	Z1	X2	Y2	Z2	X3	Y3	Z3	X4	Y4	Z4	X5	Y5	Z5	X6	Y6	Z6	X7	Y7	Z7	X8	Y8	Z8	X9	Y9	Z9	X10	Y10	Z10	X11	Y11	Z11	X12	Y12	Z12	X13	Y13	Z13	X14	Y14	Z14	X15	Y15	Z15	X16	Y16	Z16	X17	Y17	Z17	X18	Y18	Z18	X19	Y19	Z19	X20	Y20	Z20	X21	Y21	Z21	X22	Y22	Z22	X23	Y23	Z23	X24	Y24	Z24	X25	Y25	Z25	X26	Y26	Z26	X27	Y27	Z27	X28	Y28	Z28	X29	Y29	Z29	X30	Y30	Z30	X31	Y31	Z31	X32	Y32	Z32	X33	Y33	Z33	X34	Y34	Z34	X35	Y35	Z35	X36	Y36	Z36	X37	Y37	Z37	X38	Y38	Z38	X39	Y39	Z39	X40	Y40	Z40	X41	Y41	Z41	X42	Y42	Z42	X43	Y43	Z43	X44	Y44	Z44	X45	Y45	Z45	X46	Y46	Z46	X47	Y47	Z47	X48	Y48	Z48	X49	Y49	Z49	X50	Y50	Z50	X51	Y51	Z51	

118	1.17000000	-298.79985	525.94522	-390.39565	-243.28075	468.50939	-391.05796	-273.40018	122.27358	-369.83366	-338.69240	96.48859	-415.51863	-181.52241	51.46126	-325.72149	-123.11327	73.96139	-371.87375	-269.12514	535.76084	-826.27026	-214.42213	453.35758	-840.00295	-227.44807	138.88152	-864.02105	-298.77249	129.84559	-817.13505	-148.14987	44.35170	-897.36706	-98.77482	57.95228	-845.76193	-254.95744	356.38910	-360.33991	-323.40661	471.23598	-376.33552	-327.34545	357.28542	-364.59857	-303.49206	448.97192	-845.43754	-283.26881	330.06010	-868.43888	-425.33051	824.88076	-416.00289	-369.39103	729.66510	-401.08483	-456.57822	667.01264	-401.61743	-521.20479	763.87968	-418.95525	-407.02711	680.57424	-379.95111	-399.79495	777.32894	-835.84134	-311.67218	670.81835	-829.15176	-485.75927	704.17989	-801.70730	-391.46902	599.51821	-809.07603	-422.87072	937.75546	-490.56816	-591.41773	998.77922	-581.66045	-404.95308	921.99369	-734.36862	-592.22972	1001.88585	-677.24456	-392.74802	1376.26033	-641.89756	-306.87204	1326.44932	-478.04142	-332.54359	1317.80531	-806.67142	-273.55496	1284.68650	-616.01804	-272.47414	1282.39355	-660.36176	-319.43494	1232.46189	-373.20161	-380.06654	1019.38084	-338.86627	-363.01262	1061.59818	-274.66946	-229.36888	1075.17270	-307.42277	-111.77081	1084.29283	-351.29322	-96.02369	1057.25228	-334.22359	-367.91653	1235.15642	-887.48567	-521.67571	1048.28398	-893.75441	-493.47219	1084.67285	-964.04896	-396.29828	1036.39876	-945.72156	-273.32378	952.53703	-926.54817	-283.29399	935.96992	-954.43033	-506.13663	868.55247	-514.59534	-492.76028	861.39436	-720.50885	-493.68555	865.58569	-525.69374	-495.05433	870.83348	-687.27775	
119	1.18000000	-279.31087	504.45385	-388.26440	-221.12030	445.82881	-389.55649	-264.40129	103.61115	-369.08829	-335.15081	77.35609	-414.19775	-174.67764	44.84915	-324.67464	-116.54896	67.65320	-372.98044	-249.41789	515.54435	-829.18058	-195.35757	430.36672	-842.65147	-236.26977	120.74361	-861.23416	-311.15202	101.94932	-816.80162	-150.11330	40.76225	-897.96264	-103.34074	57.63528	-844.71467	-235.56693	333.75196	-358.45615	-300.77808	451.30257	-371.53604	-308.04141	338.44063	-360.38146	-284.42556	433.42964	-848.71934	-274.19326	313.42311	-870.07253	-411.18653	801.72950	-418.65292	-352.32279	708.44299	-401.66688	-438.72761	643.58818	-400.40491	-505.65408	738.65260	-419.58130	-389.51558	658.79138	-379.12144	-386.62409	753.54122	-838.64495	-295.44098	649.61932	-832.63369	-469.83041	677.99327	-802.68909	-372.85601	575.86762	-811.09574	-410.53252	909.66734	-493.29078	-581.16895	971.61533	-581.65579	-393.82197	896.47596	-736.31916	-582.35572	974.99056	-677.55526	-382.35072	1349.91627	-643.45320	-295.69292	1302.81246	-480.52360	-321.91005	1293.29864	-808.11955	-262.04090	1259.82954	-617.78146	-261.03595	1257.30920	-662.18855	-305.82621	1210.54277	-374.49849	-362.98837	997.20424	-334.52680	-345.81286	1041.79585	-271.48713	-213.28578	1058.25394	-306.73156	-96.72075	1069.70949	-352.23157	-79.88620	1043.22436	-334.92605	-356.96150	1211.09221	-889.52494	-507.78974	1022.27688	-898.83301	-480.11459	1060.70297	-968.23102	-381.25448	1017.39976	-949.60594	-254.46274	939.76415	-929.80887	-263.49105	923.08467	-957.65899	-494.04313	840.58131	-516.78102	-482.03800	835.51658	-722.83714	-481.84621	838.99579	-528.20309	-483.83921	844.65987	-689.10932	
120	1.19000000	-257.24244	487.51686	-386.22039	-197.66941	427.06392	-387.20830	-265.43250	92.95538	-371.50545	-337.48920	65.21985	-414.44340	-174.72395	44.70382	-324.27186	-116.94287	68.12096	-373.53554	-229.88811	494.72187	-831.24706	-178.54881	409.29708	-844.35063	-247.99506	106.29403	-856.55244	-323.26882	75.93965	-814.91978	-153.45203	40.56610	-897.90755	-109.81621	60.79634	-843.20425	-219.41815	315.70685	-359.79038	-277.05392	437.83673	-368.47272	-292.11738	327.05075	-358.84960	-267.10117	420.92435	-851.19389	-268.77312	300.01193	-868.85632	-397.26276	777.52632	-420.56376	-334.40031	686.99044	-401.33592	-420.36212	618.60671	-399.93013	-490.06888	711.74509	-420.20684	-371.60056	635.87625	-378.45856	-375.37230	728.74272	-842.24620	-280.28737	627.94742	-836.67929	-454.70026	650.47745	-803.42691	-354.47725	551.73371	-812.90046	-399.66406	880.13265	-495.90658	-572.81510	944.05317	-581.31229	-384.06892	870.17791	-738.06448	-574.20140	947.57897	-678.04071	-372.07123	1322.80815	-644.66248	-284.15954	1279.06826	-482.64597	-311.27258	1268.58266	-809.80113	-250.25901	1234.61210	-618.96989	-249.28808	1232.09715	-664.06536	-292.02854	1187.99414	-375.45243	-345.24422	974.06471	-330.16715	-327.92050	1021.26382	-268.67675	-196.62080	1040.73277	-306.25748	-81.19612	1054.71249	-353.44854	-63.28445	1028.82472	-336.22352	-345.71463	1186.05134	-891.46460	-493.02215	995.05529	-903.47648	-465.92401	1035.54471	-971.98401	-365.52557	997.44374	-952.83910	-235.90959	926.68573	-932.47965	-243.50775	910.19812	-960.66116	-483.89849	811.60554	-519.08754	-473.08913	809.07213	-725.25617	-472.04165	811.91327	-530.62574	-474.34519	817.75954	-690.79353	
121	1.20000000	-228.46317	482.70538	-383.21748	-172.54331	419.96702	-384.55325	-267.56689	93.83367	-373.83540	-338.84754	63.15079	-415.05373	-175.78627	45.55281	-324.44893	-118.08715	68.99095	-373.67802	-211.19551	478.19992	-831.30263	-163.15179	395.86302	-843.42727	-252.94532	99.31176	-853.06114	-327.92110	63.55571	-813.39154	-155.38726	40.54775	-897.53312	-113.23538	61.73533	-841.87940	-204.58685	310.42572	-360.89200	-251.38960	437.29850	-368.61722	-276.48374	328.62940	-358.99713	-251.18936	412.35845	-850.91173	-260.17406	291.25828	-866.34849	-385.65150	756.19086	-420.42786	-316.31811	670.83370	-400.57241	-398.60865	595.95702	-400.87219	-474.29779	684.87216	-420.05159	-351.31055	616.81095	-378.77622	-366.57925	705.66222	-845.89539	-266.66561	609.01277	-839.89072	-441.51159	624.42414	-803.74583	-337.23521	530.18213	-814.14472	-391.30711	850.93419	-498.61357	-567.09114	915.77909	-580.88169	-377.55406	842.67678	-739.44463	-568.79685	919.79964	-679.14022	-361.45553	1295.00212	-645.41713	-271.94386	1255.56827	-483.96565	-300.58440	1243.88944	-811.40368	-237.82252	1209.42374	-619.98204	-237.08006	1206.96123	-665.92296	-278.09298	1165.04908	-376.06850	-326.54147	950.76362	-326.17695	-309.40989	1000.13086	-266.29825	-179.47640	1022.79027	-306.16776	-65.36061	1039.41375	-355.11599	-46.36989	1014.19301	-337.88705	-334.36596	1160.15789	-892.92475	-477.01527	966.79165	-907.56024	-450.84846	1009.50342	-975.24537	-349.07799	976.92635	-955.36977	-217.77165	913.33158	-934.23490	-223.37400	897.15418	-963.41192	-476.44910	782.73086	-520.92461	-467.09718	781.57306	-727.17806	-464.55438	783.68777	-533.18760	-467.31034	790.19579	-692.33031	
122	1.21000000	-195.61359	488.10035	-379.49151	-146.82491	421.93178	-382.65925	-264.88072	100.44845	-374.27225	-337.30336	66.99975	-415.88107	-175.20045	45.68841	-324.87348	-116.84732	68.59802	-373.67099	-193.24563	471.29862	-829.80155	-145.32095	391.06948	-841.92063	-250.40491	100.28914	-851.53131	-326.94364	64.07658	-812.38835	-155.14071	40.78744	-897.09189	-112.52907	61.26822	-841.20558	-187.66154	315.41364	-358.16040	-224.04645	445.29473	-368.41848	-258.03969	338.76638	-357.59365	-232.83525	409.80041	-848.59008	-245.77113	289.00877	-864.81382	-376.76470	742.08828	-420.74368	-299.75096	663.04854	-401.98544	-374.87712	581.64676	-401.03151	-458.79682	663.23352	-419.34846	-329.45266	607.10985	-379.44964	-359.45995	687.55031	-848.32245	-253.95888	596.99586	-841.15290	-430.51642	603.06268	-803.86553	-320.78181	515.16890	-813.77589	-384.85180	823.26347	-501.45089	-563.57004	887.59260	-580.83587	-374.44478	814.89562	-740.78513	-565.56315	892.62039	-681.03991	-350.08330	1266.95505	-645.92700	-259.00383	1232.04613	-484.70771	-289.46971	1219.27377	-812.68011	-224.34417	1184.31111	-621.18422	-224.70760	1181.54989	-667.50208	-263.93500	1141.88368	-376.38438	-306.68357	927.52362	-322.94610	-290.43114	978.70642	-264.14889	-162.07315	1004.52904	-306.63149	-49.36930	1023.71999	-357.30106	-29.27395	999.19890	-339.98987	-322.89126	1134.07034	-894.22162	-459.67709	938.08871	-911.21396	-434.98198	983.07728	-978.07945	-331.94205	956.21530	-957.14409	-199.40380	899.41510	-934.96560	-203.17866	883.36915	-965.21080	-471.18192	755.04823	-522.40821	-463.78386	753.84687	-728.74312	-459.04275	754.89499	-536.23221	-462.18098	762.80260	-694.21759	
123	1.22000000	-166.80827	494.01406	-376.71657	-123.84279	422.97643	-381.57664	-260.19791	104.99558	-374.00766	-334.88050	71.29810	-416.67288	-173.84300	45.86749	-325.12704	-114.49277	68.08934	-373.38815	-173.19760	473.47778	-829.03254	-125.32451	389.62741	-842.31929	-246.37110	104.37807	-850.75681	-325.25105	67.96612	-811.21304	-154.27732	41.34003	-896.65812	-110.66431	60.94529	-840.88987	-169.98849	319.25174	-354.84253	-198.59657	450.86764	-364.63040	-239.20707	346.61636	-354.42942	-211.56431	412.66995	-847.69362	-231.22146	292.47152	-864.62450	-369.07038	734.09278	-424.22108	-286.12532	659.99722	-406.06031	-354.88307	575.50798	-397.42718	-444.92814	649.03131	-419.09544	-310.47702	605.14425	-378.59999	-352.55406	675.18272	-848.85644	-241.07142	592.56269	-841.01011	-419.66509	586.88239	-804.39127	-303.11617	507.26145	-812.44853	-379.26250	796.29257	-503.65887	-560.20179	861.86646	-581.18113	-372.56165	788.77540	-742.98687	-561.84343	868.35628	-682.78162	-337.92078	1240.05561	-646.26448	-245.22990	1207.79024	-485.66958	-277.38810	1194.68735	-813.61199	-211.66258	1158.38662	-621.45081	-212.75946	1155.55544	-668.59769	-249.35755	1118.60781	-376.42053	-285.95744	903.96639	-320.42104	-271.10444	957.16405	-262.04775	-144.46955	985.88538	-307.57118	-33.23197	1007.47134	-359.98880	-11.99622	983.69430	-342.73196	-310.79417	1108.53495	-895.69309	-441.48214	909.74450	-914.44674	-418.53497	956.81041	-980.54339	-314.34789	935.38552	-957.88898	-180.48098	884.92526	-934.96833	-183.42047	868.89866	-965.52534	-467.34358	728.89862	-524.40543	-461.76089	728.41113	-730.80001	-455.56819	727.04454	-539.68759	-458.11640	737.11926	-697.44036	
124	1.23000000	-147.20022	493.52268	-375.76591	-106.03195	418.12849	-381.02312	-257.00993	106.22277	-374.43390	-333.06508	73.97048	-417.52787	-172.85441	46.25645	-325.32092	-112.81396	67.78273	-373.09030	-150.46274	478.36232	-831.05568	-108.07420	386.63446	-843.95683	-244.56231	106.52841	-850.16947	-324.65074	69.54134	-810.17214	-154.02962	41.63588	-896.42627	-109.91805	60.70427	-840.66533	-155.83767	316.04136	-354.93759	-178.70543	449.25706	-360.35773	-224.18804	346.88840	-352.43623	-192.42076	415.83120	-849.30492	-221.01567	296.72320	-865.00501	-362.28071	726.32453	-428.71106	-275.63174	656.26765	-409.59209	-340.92861	570.33017	-392.13807	-433.84485	637.72085	-419.38562	-297.49707	603.32265	-375.83808	-345.55165	666.10984	-848.56817	-228.73793	591.24338	-841.22997	-407.38892	573.55984	-805.77776	-284.89123	502.21180	-813.59915	-374.30050	769.78055	-504.44394	-555.09800	840.23672	-581.35655	-370.16642	765.52465	-746.17523	-556.05365	848.49941	-683.12829	-325.30541	1215.80888	-646.22027	-230.59986	1182.68016	-487.25876	-264.27354	1170.35784	-814.40329	-201.91076	1131.39829	-620.34032	-201.55986	1129.38424	-669.26102	-234.04836	1095.16972	-376.46016	-265.00870	880.23236	-318.09343	-251.24786	935.37276	-260.34176	-126.45415	966.80811	-308.82033	-16.81185	990.60212	-363.16506	5.55407	967.57373	-346.03906	-297.62889	1083.87103	-896.90613	-422.94991	882.08548	-917.17772	-401.62945	931.05813	-982.68373	-296.56890	914.42751	-957.76142	-161.38175	870.33491	-934.40551	-163.98624	854.07398	-964.61455	-464.42557	704.70501	-526.90565	-460.05545	706.91750	-733.30876	-453.66807	701.41277	-542.54170	-455.15348	714.35447	-701.59407	
